<svg xmlns="http://www.w3.org/2000/svg" width="75" height="132" viewBox="0 0 75 132">
  <metadata><?xpacket begin="﻿" id="W5M0MpCehiHzreSzNTczkc9d"?>
<x:xmpmeta xmlns:x="adobe:ns:meta/" x:xmptk="Adobe XMP Core 5.6-c138 79.159824, 2016/09/14-01:09:01        ">
   <rdf:RDF xmlns:rdf="http://www.w3.org/1999/02/22-rdf-syntax-ns#">
      <rdf:Description rdf:about=""/>
   </rdf:RDF>
</x:xmpmeta>
                                                                                                    
                                                                                                    
                                                                                                    
                                                                                                    
                                                                                                    
                                                                                                    
                                                                                                    
                                                                                                    
                                                                                                    
                                                                                                    
                                                                                                    
                                                                                                    
                                                                                                    
                                                                                                    
                                                                                                    
                                                                                                    
                                                                                                    
                                                                                                    
                                                                                                    
                                                                                                    
                           
<?xpacket end="w"?></metadata>
<defs>
    <style>
      .cls-1 {
        fill: #005494;
        fill-rule: evenodd;
      }
    </style>
  </defs>
  <path id="Apple_IPhone._Attribute_as_Freepik_from_Flaticon.com" data-name="Apple IPhone. Attribute as Freepik from Flaticon.com" class="cls-1" d="M429.36,4529H373.635a9.623,9.623,0,0,0-9.632,9.62v112.77a9.621,9.621,0,0,0,9.632,9.61h55.72a9.63,9.63,0,0,0,9.642-9.61V4538.62A9.624,9.624,0,0,0,429.36,4529Zm-41.615,5.84H415.26c0.695,0,1.255,1.04,1.255,2.32s-0.56,2.32-1.255,2.32H387.745c-0.695,0-1.25-1.04-1.25-2.32S387.05,4534.84,387.745,4534.84ZM401.5,4651.51a6.135,6.135,0,1,1,6.153-6.14A6.151,6.151,0,0,1,401.5,4651.51Zm30.276-21.02H371.227v-85.26h60.551v85.26Z" transform="translate(-364 -4529)"/>
</svg>
