<svg xmlns="http://www.w3.org/2000/svg" width="24" height="24" viewBox="0 0 24 24">
  <metadata><?xpacket begin="﻿" id="W5M0MpCehiHzreSzNTczkc9d"?>
<x:xmpmeta xmlns:x="adobe:ns:meta/" x:xmptk="Adobe XMP Core 5.6-c138 79.159824, 2016/09/14-01:09:01        ">
   <rdf:RDF xmlns:rdf="http://www.w3.org/1999/02/22-rdf-syntax-ns#">
      <rdf:Description rdf:about=""/>
   </rdf:RDF>
</x:xmpmeta>
                                                                                                    
                                                                                                    
                                                                                                    
                                                                                                    
                                                                                                    
                                                                                                    
                                                                                                    
                                                                                                    
                                                                                                    
                                                                                                    
                                                                                                    
                                                                                                    
                                                                                                    
                                                                                                    
                                                                                                    
                                                                                                    
                                                                                                    
                                                                                                    
                                                                                                    
                                                                                                    
                           
<?xpacket end="w"?></metadata>
<defs>
    <style>
      .cls-1 {
        fill: #fff;
        fill-rule: evenodd;
      }
    </style>
  </defs>
  <path class="cls-1" d="M793.427,6320.11a2.571,2.571,0,0,1-2.768,2.6A2.6,2.6,0,1,1,793.427,6320.11Zm-5.3,21.38v-16.73h5.131v16.73h-5.131Zm8.2-11.39c0-2.09-.067-3.83-0.136-5.34h4.456l0.238,2.33h0.1a5.92,5.92,0,0,1,5.1-2.7c3.375,0,5.907,2.29,5.907,7.22v9.88h-5.131v-9.27c0-2.15-.744-3.62-2.6-3.62a2.82,2.82,0,0,0-2.632,1.95,3.781,3.781,0,0,0-.169,1.3v9.64h-5.131V6330.1Z" transform="translate(-788 -6317.5)"/>
</svg>
