<svg xmlns="http://www.w3.org/2000/svg" width="24" height="19.5" viewBox="0 0 24 19.5">
  <metadata><?xpacket begin="﻿" id="W5M0MpCehiHzreSzNTczkc9d"?>
<x:xmpmeta xmlns:x="adobe:ns:meta/" x:xmptk="Adobe XMP Core 5.6-c138 79.159824, 2016/09/14-01:09:01        ">
   <rdf:RDF xmlns:rdf="http://www.w3.org/1999/02/22-rdf-syntax-ns#">
      <rdf:Description rdf:about=""/>
   </rdf:RDF>
</x:xmpmeta>
                                                                                                    
                                                                                                    
                                                                                                    
                                                                                                    
                                                                                                    
                                                                                                    
                                                                                                    
                                                                                                    
                                                                                                    
                                                                                                    
                                                                                                    
                                                                                                    
                                                                                                    
                                                                                                    
                                                                                                    
                                                                                                    
                                                                                                    
                                                                                                    
                                                                                                    
                                                                                                    
                           
<?xpacket end="w"?></metadata>
<defs>
    <style>
      .cls-1 {
        fill: #fff;
        fill-rule: evenodd;
      }
    </style>
  </defs>
  <path class="cls-1" d="M714.492,6324.63a9.921,9.921,0,0,1-2.828.77,4.927,4.927,0,0,0,2.165-2.72,9.926,9.926,0,0,1-3.127,1.19,4.927,4.927,0,0,0-8.39,4.49,13.95,13.95,0,0,1-10.149-5.14,4.923,4.923,0,0,0,1.524,6.57,4.81,4.81,0,0,1-2.23-.61c0,0.02,0,.04,0,0.06a4.94,4.94,0,0,0,3.95,4.83,5.035,5.035,0,0,1-1.3.17,4.723,4.723,0,0,1-.927-0.09,4.925,4.925,0,0,0,4.6,3.42,9.884,9.884,0,0,1-6.115,2.11,11.354,11.354,0,0,1-1.175-.07,14.006,14.006,0,0,0,21.557-11.8c0-.21,0-0.42-0.014-0.63A10.044,10.044,0,0,0,714.492,6324.63Z" transform="translate(-690.5 -6322.31)"/>
</svg>
