<svg xmlns="http://www.w3.org/2000/svg" width="23.938" height="16.16" viewBox="0 0 23.938 16.16">
  <metadata><?xpacket begin="﻿" id="W5M0MpCehiHzreSzNTczkc9d"?>
<x:xmpmeta xmlns:x="adobe:ns:meta/" x:xmptk="Adobe XMP Core 5.6-c138 79.159824, 2016/09/14-01:09:01        ">
   <rdf:RDF xmlns:rdf="http://www.w3.org/1999/02/22-rdf-syntax-ns#">
      <rdf:Description rdf:about=""/>
   </rdf:RDF>
</x:xmpmeta>
                                                                                                    
                                                                                                    
                                                                                                    
                                                                                                    
                                                                                                    
                                                                                                    
                                                                                                    
                                                                                                    
                                                                                                    
                                                                                                    
                                                                                                    
                                                                                                    
                                                                                                    
                                                                                                    
                                                                                                    
                                                                                                    
                                                                                                    
                                                                                                    
                                                                                                    
                                                                                                    
                           
<?xpacket end="w"?></metadata>
<defs>
    <style>
      .cls-1 {
        fill: #fff;
        fill-rule: evenodd;
      }
    </style>
  </defs>
  <path class="cls-1" d="M895.154,6332.53s2.267-.18,2.267-3.01a3.907,3.907,0,0,0-4.2-4.22h-7.729v15.83h7.729s4.717,0.16,4.717-4.67C897.936,6336.46,898.141,6332.53,895.154,6332.53Zm-6.259-4.41h4.323s1.05,0,1.05,1.64-0.618,1.89-1.32,1.89H888.9v-3.53Zm4.1,10.2h-4.1v-4.23h4.323s1.566-.02,1.566,2.17C894.784,6338.11,893.614,6338.31,893,6338.32Zm11.23-8.99c-5.713,0-5.708,6.08-5.708,6.08s-0.392,6.05,5.708,6.05c0,0,5.082.31,5.082-4.21H906.7s0.086,1.7-2.382,1.7a2.462,2.462,0,0,1-2.615-2.75h7.7S910.242,6329.33,904.229,6329.33Zm2.324,4.76h-4.879a2.752,2.752,0,0,1,2.614-2.44C906.58,6331.65,906.553,6334.09,906.553,6334.09Zm0.61-7.86h-6.13v1.95h6.128v-1.95h0Z" transform="translate(-885.5 -6325.31)"/>
</svg>
