<svg>
  <symbol viewBox="0 0 24.25 21.22" id="social-vk"
  xmlns="http://www.w3.org/2000/svg">
  <path class="cls-1" d="M836.7,6326.47l0.985,1.29s2.031-1.6,2.708-.8,3.262,10.49,4.125,12.28c0.753,1.56,2.83,3.63,5.109,2.15s9.848-7.95,11.2-15.6-9.111-6.04-10.22.62c2.771-1.67,4.25.67,2.832,3.33s-2.708,4.38-3.385,4.38-1.2-1.78-1.971-4.88c-0.8-3.2-.795-8.98-4.123-8.32C840.821,6321.53,836.7,6326.47,836.7,6326.47Z" transform="translate(-836.688 -6320.69)"/>
  </symbol>

  <symbol viewBox="0 0 24 19.5" id="social-twitter"
    xmlns="http://www.w3.org/2000/svg">>
    <path class="cls-1" d="M714.492,6324.63a9.921,9.921,0,0,1-2.828.77,4.927,4.927,0,0,0,2.165-2.72,9.926,9.926,0,0,1-3.127,1.19,4.927,4.927,0,0,0-8.39,4.49,13.95,13.95,0,0,1-10.149-5.14,4.923,4.923,0,0,0,1.524,6.57,4.81,4.81,0,0,1-2.23-.61c0,0.02,0,.04,0,0.06a4.94,4.94,0,0,0,3.95,4.83,5.035,5.035,0,0,1-1.3.17,4.723,4.723,0,0,1-.927-0.09,4.925,4.925,0,0,0,4.6,3.42,9.884,9.884,0,0,1-6.115,2.11,11.354,11.354,0,0,1-1.175-.07,14.006,14.006,0,0,0,21.557-11.8c0-.21,0-0.42-0.014-0.63A10.044,10.044,0,0,0,714.492,6324.63Z" transform="translate(-690.5 -6322.31)"/>
  </symbol>

  <symbol viewBox="0 0 24 24" id="social-linkedin"
    xmlns="http://www.w3.org/2000/svg">
    <path class="cls-1" d="M793.427,6320.11a2.571,2.571,0,0,1-2.768,2.6A2.6,2.6,0,1,1,793.427,6320.11Zm-5.3,21.38v-16.73h5.131v16.73h-5.131Zm8.2-11.39c0-2.09-.067-3.83-0.136-5.34h4.456l0.238,2.33h0.1a5.92,5.92,0,0,1,5.1-2.7c3.375,0,5.907,2.29,5.907,7.22v9.88h-5.131v-9.27c0-2.15-.744-3.62-2.6-3.62a2.82,2.82,0,0,0-2.632,1.95,3.781,3.781,0,0,0-.169,1.3v9.64h-5.131V6330.1Z" transform="translate(-788 -6317.5)"/>
  </symbol>

  <symbol viewBox="0 0 12.719 24" id="social-facebook"
    xmlns="http://www.w3.org/2000/svg">
    <path class="cls-1" d="M747.792,6330.33v10.74h5.351v-10.69H756.8l0.883-4.45h-4.5v-3.27a0.973,0.973,0,0,1,1-1.05h2.6v-4.54h-4.856c-1.674,0-4.148,2.01-4.148,4.15v4.58h-2.807v4.51Z" transform="translate(-744.969 -6317.06)"/>
  </symbol>

  <symbol viewBox="0 0 23.938 16.16" id="social-behance"
    xmlns="http://www.w3.org/2000/svg">
    <path class="cls-1" d="M895.154,6332.53s2.267-.18,2.267-3.01a3.907,3.907,0,0,0-4.2-4.22h-7.729v15.83h7.729s4.717,0.16,4.717-4.67C897.936,6336.46,898.141,6332.53,895.154,6332.53Zm-6.259-4.41h4.323s1.05,0,1.05,1.64-0.618,1.89-1.32,1.89H888.9v-3.53Zm4.1,10.2h-4.1v-4.23h4.323s1.566-.02,1.566,2.17C894.784,6338.11,893.614,6338.31,893,6338.32Zm11.23-8.99c-5.713,0-5.708,6.08-5.708,6.08s-0.392,6.05,5.708,6.05c0,0,5.082.31,5.082-4.21H906.7s0.086,1.7-2.382,1.7a2.462,2.462,0,0,1-2.615-2.75h7.7S910.242,6329.33,904.229,6329.33Zm2.324,4.76h-4.879a2.752,2.752,0,0,1,2.614-2.44C906.58,6331.65,906.553,6334.09,906.553,6334.09Zm0.61-7.86h-6.13v1.95h6.128v-1.95h0Z" transform="translate(-885.5 -6325.31)"/>
  </symbol>

  <symbol viewBox="0 0 75 132" id="services1"
    xmlns="http://www.w3.org/2000/svg">
    <path id="Apple_IPhone._Attribute_as_Freepik_from_Flaticon.com" class="cls-1" d="M429.36,4529H373.635a9.623,9.623,0,0,0-9.632,9.62v112.77a9.621,9.621,0,0,0,9.632,9.61h55.72a9.63,9.63,0,0,0,9.642-9.61V4538.62A9.624,9.624,0,0,0,429.36,4529Zm-41.615,5.84H415.26c0.695,0,1.255,1.04,1.255,2.32s-0.56,2.32-1.255,2.32H387.745c-0.695,0-1.25-1.04-1.25-2.32S387.05,4534.84,387.745,4534.84ZM401.5,4651.51a6.135,6.135,0,1,1,6.153-6.14A6.151,6.151,0,0,1,401.5,4651.51Zm30.276-21.02H371.227v-85.26h60.551v85.26Z" transform="translate(-364 -4529)"/>
  </symbol>

  <symbol viewBox="0 0 191.906 148.06" id="services2"
    xmlns="http://www.w3.org/2000/svg">
    <path id="Responsive_Design_For_Modern_Screens._Attribute_as_Freepik_from_Flaticon.com" data-name="Responsive Design For Modern Screens. Attribute as Freepik from Flaticon.com" class="cls-1" d="M707.049,4675.52h75.212V4564.44H707.049v111.08Zm39.193-5.57a3.57,3.57,0,1,1,3.627-3.57A3.6,3.6,0,0,1,746.242,4669.95Zm-28.316-94.8h53.467l0,81.95H717.926v-81.95Zm26.322-37.23h120.53v48.16H875.4v-58.61H733.628v32.22h10.62v-21.77Zm42.861,71.13h55.857v10.45H787.109v-10.45Zm61.348-18.92v83.65h50.514v-83.65H848.457Zm26.379,3.47a1.2,1.2,0,1,1-1.223,1.2A1.2,1.2,0,0,1,874.836,4593.6Zm-7.265,4.01H882.1v1.15h-14.53v-1.15Zm6.787,72.56a2.87,2.87,0,1,1,2.915-2.87A2.9,2.9,0,0,1,874.358,4670.17Zm16.508-9.85c-13.119.08-27.8,0.12-34.3,0.07v-57.52h34.3v57.45Zm-88.385-36.54H787.109v6.34H824.55v2.77H787.109v5.73h55.857v-14.84H802.481Z" transform="translate(-707.063 -4527.47)"/>
  </symbol>

  <symbol viewBox="0 0 116 116" id="services3"
    xmlns="http://www.w3.org/2000/svg">>
    <path id="Verification_Checkmark_Symbol_In_Black_Circular_Button._Attribute_as_Sebastien_Gabriel_from_Flaticon.com" data-name="Verification Checkmark Symbol In Black Circular Button. Attribute as Sebastien Gabriel from Flaticon.com" class="cls-1" d="M1201,4548a58,58,0,1,0,58,58A58,58,0,0,0,1201,4548Zm-6.85,74.66-0.4-.4-0.4.4-16.26-16.26,2.56-2.56,14.1,14.1,28.6-28.6,2.56,2.56Z" transform="translate(-1143 -4548)"/>
  </symbol>
</svg>
